<?xml version="1.0" encoding="UTF-8"?>
<svg version="1.1" xmlns="http://www.w3.org/2000/svg" width="2000" height="259">
<path d="M0 0 C1.5871582 1.79394531 1.5871582 1.79394531 3.30078125 4.328125 C3.94096191 5.26293701 4.58114258 6.19774902 5.24072266 7.16088867 C5.92440918 8.18029541 6.6080957 9.19970215 7.3125 10.25 C8.76393323 12.37656811 10.21576309 14.50286555 11.66796875 16.62890625 C12.76117432 18.23983154 12.76117432 18.23983154 13.87646484 19.88330078 C16.91795658 24.34727911 20.01852311 28.7686209 23.125 33.1875 C24.27234271 34.82537564 25.4194783 36.46339639 26.56640625 38.1015625 C28.8848246 41.41018692 31.20553959 44.71718837 33.52734375 48.0234375 C41.43563938 59.29221412 49.25331927 70.61950674 57 82 C61.51884887 80.45656016 65.19180032 77.97680824 69.0625 75.25 C69.74207764 74.77844482 70.42165527 74.30688965 71.12182617 73.82104492 C75.23208842 70.96291555 79.31425074 68.06635251 83.390625 65.16015625 C84.74208618 64.20157715 84.74208618 64.20157715 86.12084961 63.22363281 C87.89707237 61.96247438 89.66883816 60.69501205 91.43579102 59.42089844 C92.24717529 58.84500977 93.05855957 58.26912109 93.89453125 57.67578125 C94.97504761 56.9010144 94.97504761 56.9010144 96.07739258 56.1105957 C98 55 98 55 101 55 C102.80906351 57.12687196 104.4054242 59.21926146 106 61.5 C106.71978027 62.5058313 106.71978027 62.5058313 107.45410156 63.53198242 C111.87249442 69.73572262 116.18919858 76.01239563 120.46875 82.3125 C123.19274634 86.31208375 126.04867718 90.21165469 128.953125 94.08203125 C129.29859375 94.71496094 129.6440625 95.34789062 130 96 C128.61452903 100.1564129 125.69912297 101.50356198 122.1875 103.8125 C120.71675982 104.80106038 119.2467404 105.7906937 117.77734375 106.78125 C116.9972998 107.30460937 116.21725586 107.82796875 115.41357422 108.3671875 C111.32478667 111.13330232 107.28902993 113.97444474 103.25 116.8125 C101.54693301 118.00659316 99.84380745 119.20060278 98.140625 120.39453125 C97.29048828 120.99088379 96.44035156 121.58723633 95.56445312 122.20166016 C91.37826872 125.13724987 87.18898523 128.06840912 83 131 C81.35025286 132.15493712 79.7005133 133.30988508 78.05078125 134.46484375 C74.54882021 136.91628505 71.04610228 139.36664076 67.54296875 141.81640625 C66.1981543 142.75709961 66.1981543 142.75709961 64.82617188 143.71679688 C63.12063915 144.90978609 61.41492267 146.10251268 59.70898438 147.29492188 C58.93232422 147.83826172 58.15566406 148.38160156 57.35546875 148.94140625 C56.6186084 149.45590332 55.88174805 149.97040039 55.12255859 150.50048828 C53.72038394 151.49107452 52.32718567 152.49450495 50.94384766 153.51123047 C46.19623113 157 46.19623113 157 44 157 C42.80175781 155.57324219 42.80175781 155.57324219 41.453125 153.546875 C40.94531494 152.792854 40.43750488 152.03883301 39.91430664 151.26196289 C39.09047485 150.01854126 39.09047485 150.01854126 38.25 148.75 C37.06743992 146.99279351 35.88381201 145.23630525 34.69921875 143.48046875 C34.08739746 142.57087402 33.47557617 141.6612793 32.84521484 140.72412109 C29.96419657 136.47082632 27.01616341 132.26553387 24.0625 128.0625 C23.4835498 127.23741943 22.90459961 126.41233887 22.30810547 125.56225586 C21.13068103 123.88438533 19.95294627 122.20673252 18.77490234 120.52929688 C16.39471814 117.13745253 14.02061167 113.74137368 11.64624023 110.34545898 C6.77963451 103.38597801 1.90182298 96.43472425 -3 89.5 C-9.09043346 80.88372055 -15.14047828 72.23940698 -21.18701172 63.59228516 C-24.26902987 59.18548894 -27.35339253 54.78033413 -30.4375 50.375 C-31.54037533 48.79948669 -32.64324027 47.22396611 -33.74609375 45.6484375 C-34.27058105 44.89916992 -34.79506836 44.14990234 -35.33544922 43.37792969 C-38.22363281 39.25195312 -41.11181641 35.12597656 -44 31 C-42.52406034 27.28980708 -40.60612261 25.72171377 -37.3359375 23.49609375 C-36.38557617 22.84253906 -35.43521484 22.18898438 -34.45605469 21.515625 C-33.43930664 20.82984375 -32.42255859 20.1440625 -31.375 19.4375 C-30.3427832 18.73238281 -29.31056641 18.02726562 -28.24707031 17.30078125 C-26.15673319 15.87304401 -24.06429415 14.44837912 -21.96972656 13.02685547 C-19.30455511 11.20786061 -16.65927422 9.36503901 -14.0234375 7.50390625 C-13.29334473 6.99093994 -12.56325195 6.47797363 -11.81103516 5.94946289 C-10.466443 5.00385241 -9.12481647 4.05400673 -7.78662109 3.09936523 C-3.33795025 0 -3.33795025 0 0 0 Z " fill="#9963D2" transform="translate(64,68)"/>
<path d="M0 0 C1.78567423 2.2757392 3.36603379 4.51900038 4.9375 6.9375 C5.92854519 8.42133649 6.92077088 9.90438509 7.9140625 11.38671875 C8.42485352 12.15419434 8.93564453 12.92166992 9.46191406 13.71240234 C11.85226507 17.26757519 14.33053462 20.75845663 16.8125 24.25 C17.82200138 25.67550741 18.83110797 27.10129447 19.83984375 28.52734375 C20.35401855 29.25421387 20.86819336 29.98108398 21.39794922 30.72998047 C24.23480885 34.74965753 27.05493056 38.78103363 29.875 42.8125 C30.45999268 43.6487793 31.04498535 44.48505859 31.64770508 45.34667969 C32.83781407 47.04827955 34.02783655 48.74993993 35.21777344 50.45166016 C38.14376733 54.6354306 41.0719831 58.81764524 44 63 C45.16667759 64.66665902 46.33334425 66.33332569 47.5 68 C48.0775 68.825 48.655 69.65 49.25 70.5 C51 73 52.75 75.5 54.5 78 C55.07790283 78.82556396 55.65580566 79.65112793 56.2512207 80.50170898 C57.41386208 82.16264843 58.57645998 83.82361831 59.73901367 85.48461914 C62.71690514 89.73916729 65.69562982 93.99312825 68.67578125 98.24609375 C75.14424058 107.47886668 81.59902228 116.72027568 88 126 C85.22591822 128.91658873 82.38677701 131.26318021 79.0703125 133.5390625 C78.11616455 134.197854 77.1620166 134.85664551 76.17895508 135.53540039 C74.66724731 136.5697522 74.66724731 136.5697522 73.125 137.625 C64.74247332 143.35997488 64.74247332 143.35997488 56.51171875 149.30859375 C55.55531494 150.01798096 55.55531494 150.01798096 54.57958984 150.74169922 C52.92778777 151.97632884 51.28577045 153.22401927 49.64453125 154.47265625 C47 156 47 156 45.01977539 155.83105469 C42.4189781 154.76093333 41.60759819 153.55250628 40.0390625 151.23046875 C39.4925 150.43447266 38.9459375 149.63847656 38.3828125 148.81835938 C37.80273438 147.95017578 37.22265625 147.08199219 36.625 146.1875 C35.36748185 144.34745505 34.10966104 142.50761692 32.8515625 140.66796875 C32.2112207 139.72356934 31.57087891 138.77916992 30.91113281 137.80615234 C27.98344943 133.50737964 24.99095678 129.25486632 22 125 C20.83297227 123.33358614 19.66630678 121.66691853 18.5 120 C17.63375 118.7625 17.63375 118.7625 16.75 117.5 C11.5 110 11.5 110 9.74755859 107.49511719 C8.59077984 105.84349957 7.43227503 104.19308941 6.27197266 102.54394531 C3.18813458 98.15584098 0.14472528 93.74531434 -2.8515625 89.296875 C-3.48320312 88.36875 -4.11484375 87.440625 -4.765625 86.484375 C-5.98241797 84.69497358 -7.18861759 82.8983112 -8.3828125 81.09375 C-8.929375 80.29453125 -9.4759375 79.4953125 -10.0390625 78.671875 C-10.51553223 77.9612793 -10.99200195 77.25068359 -11.48291016 76.51855469 C-11.9835498 76.01743164 -12.48418945 75.51630859 -13 75 C-17.23849965 75 -17.86008418 75.26207968 -21.09765625 77.60546875 C-21.89075195 78.17120605 -22.68384766 78.73694336 -23.50097656 79.31982422 C-24.3462793 79.93615723 -25.19158203 80.55249023 -26.0625 81.1875 C-27.84952154 82.46587725 -29.63730264 83.74319328 -31.42578125 85.01953125 C-32.34182129 85.67646973 -33.25786133 86.3334082 -34.20166016 87.01025391 C-38.67660963 90.19214522 -43.21149023 93.28475717 -47.75 96.375 C-48.57765869 96.93985107 -49.40531738 97.50470215 -50.25805664 98.08666992 C-52.17131673 99.39217656 -54.08527178 100.69664804 -56 102 C-60.07726095 98.33339843 -62.90516828 93.95906179 -65.9375 89.4375 C-67.08411437 87.73792961 -68.2312666 86.03872198 -69.37890625 84.33984375 C-69.96945801 83.46440918 -70.56000977 82.58897461 -71.16845703 81.68701172 C-73.0122751 78.9819915 -74.88894459 76.30295763 -76.77734375 73.62890625 C-77.38006104 72.76918213 -77.98277832 71.90945801 -78.60375977 71.02368164 C-79.76968436 69.36246007 -80.94317603 67.70651962 -82.12475586 66.05639648 C-82.6481958 65.30559814 -83.17163574 64.5547998 -83.7109375 63.78125 C-84.17806152 63.12189453 -84.64518555 62.46253906 -85.12646484 61.78320312 C-86 60 -86 60 -85 57 C-82.76229247 55.29378576 -80.53421109 53.73049323 -78.1875 52.1875 C-76.71675982 51.19893962 -75.2467404 50.2093063 -73.77734375 49.21875 C-72.60727783 48.43371094 -72.60727783 48.43371094 -71.41357422 47.6328125 C-67.32478667 44.86669768 -63.28902993 42.02555526 -59.25 39.1875 C-57.54693301 37.99340684 -55.84380745 36.79939722 -54.140625 35.60546875 C-53.29048828 35.00911621 -52.44035156 34.41276367 -51.56445312 33.79833984 C-46.55607762 30.28618314 -41.54353769 26.77997321 -36.53173828 23.27270508 C-32.18900693 20.23330676 -27.84749425 17.19218887 -23.5078125 14.1484375 C-22.60675781 13.51679687 -21.70570313 12.88515625 -20.77734375 12.234375 C-19.05820247 11.02920379 -17.33942927 9.82350729 -15.62109375 8.6171875 C-14.09481769 7.54753287 -12.56662751 6.48060191 -11.03613281 5.41699219 C-9.75383073 4.52460834 -8.4763805 3.62517167 -7.20605469 2.71582031 C-3.33345202 0 -3.33345202 0 0 0 Z " fill="#9963D3" transform="translate(182,35)"/>
<path d="M0 0 C78.465625 0 78.465625 0 97.75 18.0625 C106.07821181 26.83600637 111.73680412 37.02937719 114 49 C114.18175781 49.9075 114.36351562 50.815 114.55078125 51.75 C117.14286816 70.50318532 114.29406807 89.33902425 102.9296875 104.8203125 C90.75362818 119.09117772 77.2000385 124.09999175 59 128 C39.53 128 20.06 128 0 128 C0 85.76 0 43.52 0 0 Z M25 22 C25 50.05 25 78.1 25 107 C53.74719221 108.30914139 53.74719221 108.30914139 77.98828125 96.25390625 C86.93668186 87.03724524 89.29291607 75.11401335 89.31689453 62.73046875 C89.11654062 51.11488887 85.41040403 40.72715341 77.33984375 32.2578125 C62.5356105 18.70131645 44.87520121 22 25 22 Z " fill="#9963D3" transform="translate(323,48)"/>
<path d="M0 0 C0.99 0.99 0.99 0.99 2 2 C2.66 -0.97 3.32 -3.94 4 -7 C11.26 -7 18.52 -7 26 -7 C26.06805913 3.59732931 26.12297858 14.19451097 26.15543652 24.79201031 C26.17102286 29.71404395 26.19213107 34.63591895 26.22631836 39.55786133 C26.25916462 44.31708627 26.27690574 49.07615963 26.28463173 53.83548927 C26.29013025 55.64176631 26.30086609 57.44803603 26.31719017 59.25424767 C26.46388743 76.17489665 25.00333835 91.09587667 13.07421875 104.0859375 C-0.42743351 116.5450893 -18.5838212 120.52130648 -36.46484375 120.10546875 C-37.30144531 120.07066406 -38.13804688 120.03585938 -39 120 C-40.62875999 115.5517059 -41.50525722 111.31733822 -42.125 106.625 C-42.37636719 104.75714844 -42.37636719 104.75714844 -42.6328125 102.8515625 C-42.75398438 101.91054687 -42.87515625 100.96953125 -43 100 C-42.45174561 99.93006836 -41.90349121 99.86013672 -41.33862305 99.78808594 C-21.59856993 97.82923445 -21.59856993 97.82923445 -5 88 C-3.08594809 85.10700551 -1.48174379 82.13419538 0 79 C-0.33 78.67 -0.66 78.34 -1 78 C-1.87011719 78.50660156 -1.87011719 78.50660156 -2.7578125 79.0234375 C-3.53898437 79.46945313 -4.32015625 79.91546875 -5.125 80.375 C-5.89070313 80.81585938 -6.65640625 81.25671875 -7.4453125 81.7109375 C-16.58278863 86.32159059 -27.37189513 86.30838477 -37.3046875 84.34765625 C-48.75356431 80.56920257 -55.52304575 73.14126003 -61.18359375 62.84765625 C-67.89413624 49.25450607 -67.38891533 32.61427262 -63.22265625 18.3359375 C-59.46974273 7.93086397 -52.47944805 -0.38203443 -42.48046875 -5.21875 C-27.76166777 -11.39755701 -12.62388457 -10.16137793 0 0 Z M-34.1875 20.125 C-39.82296385 27.19521449 -40.9192231 35.16524463 -40 44 C-38.75197059 50.53135394 -36.03952687 55.61418534 -31 60 C-25.52414935 63.26444943 -20.23389149 63.8848104 -14 63 C-8.4032991 61.14912254 -3.99614732 56.99959523 -1 52 C2.489112 43.62121695 2.61244197 35.65648146 0 27 C-2.39198205 21.80727948 -5.62594032 17.1363753 -10.87890625 14.5859375 C-19.72333096 12.14272625 -27.83252319 13.46077858 -34.1875 20.125 Z " fill="#9963D3" transform="translate(1716,92)"/>
<path d="M0 0 C7.92 0 15.84 0 24 0 C24.33 15.18 24.66 30.36 25 46 C28.96 43.525 28.96 43.525 33 41 C41.63785668 36.87217469 51.98455809 37.2885889 61 40 C68.72151556 43.06389737 74.5802569 48.10902989 78.28515625 55.59765625 C80.77699251 61.66201761 82.12648438 66.74593457 82.11352539 73.32910156 C82.11341209 75.25064056 82.11341209 75.25064056 82.11329651 77.21099854 C82.10819026 78.60420775 82.10297427 79.99741657 82.09765625 81.390625 C82.09579032 82.81980337 82.09436724 84.24898238 82.09336853 85.67816162 C82.08955715 89.43300148 82.07973867 93.18780243 82.06866455 96.94262695 C82.05842075 100.77685012 82.05386455 104.61107959 82.04882812 108.4453125 C82.03811513 115.96356143 82.02052953 123.4817703 82 131 C73.75 131 65.5 131 57 131 C56.96261719 127.13410156 56.92523437 123.26820313 56.88671875 119.28515625 C56.84044707 115.52199799 56.78923375 111.75893696 56.73754883 107.99584961 C56.70438874 105.38979042 56.67632935 102.78366096 56.65356445 100.17749023 C56.61985511 96.4214089 56.56752888 92.66596645 56.51171875 88.91015625 C56.50532883 87.75354996 56.4989389 86.59694366 56.49235535 85.4052887 C56.35665438 77.8609573 55.81117047 70.7805396 51.1875 64.5625 C46.35191749 61.10851249 41.93395048 60.5537666 36.1796875 61.40625 C32.46863243 62.41714672 30.53558199 64.16256302 28 67 C24.62301353 73.97119122 24.52963972 80.370188 24.48828125 88.03125 C24.47033005 89.26290894 24.45237885 90.49456787 24.43388367 91.7635498 C24.37994539 95.67566564 24.34593674 99.58766058 24.3125 103.5 C24.28093107 106.16150393 24.24482169 108.8229223 24.20898438 111.484375 C24.12178842 117.98959918 24.06157501 124.49428158 24 131 C16.08 131 8.16 131 0 131 C0 87.77 0 44.54 0 0 Z " fill="#9963D2" transform="translate(1212,45)"/>
<path d="M0 0 C8.00861429 7.00909924 12.78357489 15.59663972 15 26 C15.08960767 27.5748971 15.13061747 29.15302601 15.1328125 30.73046875 C15.13410156 31.61541016 15.13539063 32.50035156 15.13671875 33.41210938 C15.13285156 34.32798828 15.12898437 35.24386719 15.125 36.1875 C15.12886719 37.11498047 15.13273438 38.04246094 15.13671875 38.99804688 C15.13542969 39.87912109 15.13414062 40.76019531 15.1328125 41.66796875 C15.13168457 42.47516357 15.13055664 43.2823584 15.12939453 44.11401367 C15 46 15 46 14 47 C12.09756238 47.09391296 10.19161541 47.11743658 8.28686523 47.11352539 C7.0656749 47.11344986 5.84448456 47.11337433 4.58628845 47.11329651 C3.24372314 47.10818911 1.90115825 47.10297311 0.55859375 47.09765625 C-0.80761158 47.09579199 -2.17381757 47.09436813 -3.5400238 47.09336853 C-7.14201695 47.08954394 -10.74397 47.07971417 -14.34594727 47.06866455 C-18.01903745 47.05844916 -21.69213409 47.05387064 -25.36523438 47.04882812 C-32.57684123 47.03809184 -39.788415 47.02101614 -47 47 C-46.53923702 48.29293312 -46.07241562 49.58370834 -45.60302734 50.87353516 C-45.34371429 51.59256012 -45.08440125 52.31158508 -44.81723022 53.05239868 C-42.93422833 57.53991868 -38.73447043 59.96869326 -34.6875 62.375 C-27.60635202 64.0217786 -20.39134207 63.64606763 -14 60 C-12.29503463 58.37253306 -10.62102968 56.71108689 -9 55 C-5.74916919 53.73156036 -3.71528025 54.13480586 -0.453125 55.21484375 C0.39121094 55.48876953 1.23554687 55.76269531 2.10546875 56.04492188 C2.97816406 56.33947266 3.85085938 56.63402344 4.75 56.9375 C5.63816406 57.22818359 6.52632812 57.51886719 7.44140625 57.81835938 C9.63082079 58.53639318 11.81662189 59.26385523 14 60 C8.42358338 71.59238813 1.54297075 78.86050107 -10.8125 83.375 C-23.24074311 86.84673927 -38.35260468 86.92831498 -50 81 C-61.15380649 74.56266025 -68.36633061 66.08089206 -71.9765625 53.6328125 C-75.20898844 39.82703067 -74.92993367 26.239093 -68.6796875 13.2578125 C-67.25386843 11.00610916 -65.73903101 9.01808483 -64 7 C-63.42507813 6.30519531 -62.85015625 5.61039063 -62.2578125 4.89453125 C-46.6198549 -12.39806502 -18.46290064 -13.45601233 0 0 Z M-44.87109375 21.0234375 C-46.44042683 23.50611641 -46.44042683 23.50611641 -47 29 C-35.12 29 -23.24 29 -11 29 C-12.14106533 22.15360803 -13.5283688 18.86633376 -19.0625 14.6875 C-29.17091299 8.88053935 -37.82601354 12.92255508 -44.87109375 21.0234375 Z " fill="#9963D3" transform="translate(520,92)"/>
<path d="M0 0 C10.3460512 8.45529441 16.28242316 17.98727386 17.8125 31.3125 C18.09969508 37.20368108 17.97225135 42.51374326 16.8125 48.3125 C-3.6475 48.3125 -24.1075 48.3125 -45.1875 48.3125 C-40.73308535 57.95419224 -40.73308535 57.95419224 -33.1875 63.3125 C-26.96806645 65.38564452 -20.31037402 65.11749213 -14.25 62.625 C-10.63271083 60.81635541 -8.39298418 58.76456219 -6.1875 55.3125 C1.42163098 56.5919114 8.54475897 58.74006933 15.8125 61.3125 C13.41392574 69.90739111 7.32295607 76.03178454 -0.125 80.75 C-1.79110475 81.64518261 -3.47852987 82.50214327 -5.1875 83.3125 C-6.25291016 83.82103516 -6.25291016 83.82103516 -7.33984375 84.33984375 C-17.49156184 88.21141286 -32.8737476 88.1924855 -43.03125 84.34765625 C-55.75006354 78.2417041 -63.96427223 70.62008666 -69.1875 57.3125 C-73.11847412 44.32143826 -72.9814779 28.6866593 -67.1875 16.3125 C-61.06046602 5.33037328 -52.69691619 -1.38793046 -41.125 -5.875 C-27.52962552 -9.63542273 -11.70947018 -8.15359626 0 0 Z M-41.625 21.25 C-44.01654696 24.52778779 -44.33052277 26.02761385 -45.1875 30.3125 C-33.3075 30.3125 -21.4275 30.3125 -9.1875 30.3125 C-10.21587644 23.11386492 -10.99662137 20.82681468 -16.1875 16.3125 C-25.78741509 10.90163877 -34.8866645 12.7222979 -41.625 21.25 Z " fill="#9963D2" transform="translate(1085.1875,90.6875)"/>
<path d="M0 0 C8.59499764 7.9944155 13.20853815 19.22913815 13.6484375 30.84765625 C13.64585938 32.04132813 13.64328125 33.235 13.640625 34.46484375 C13.64449219 36.26308594 13.64449219 36.26308594 13.6484375 38.09765625 C13.515625 41.33984375 13.515625 41.33984375 12.515625 45.33984375 C-7.944375 45.33984375 -28.404375 45.33984375 -49.484375 45.33984375 C-45.02996035 54.98153599 -45.02996035 54.98153599 -37.484375 60.33984375 C-30.97959194 62.50810477 -23.51768103 62.09245558 -17.2109375 59.40625 C-14.23002452 57.56509786 -12.50300988 55.17854905 -10.484375 52.33984375 C-2.87524402 53.61925515 4.24788397 55.76741308 11.515625 58.33984375 C9.11705074 66.93473486 3.02608107 73.05912829 -4.421875 77.77734375 C-6.08797975 78.67252636 -7.77540487 79.52948702 -9.484375 80.33984375 C-10.54978516 80.84837891 -10.54978516 80.84837891 -11.63671875 81.3671875 C-21.79142995 85.2398981 -37.16132908 85.21463533 -47.32421875 81.37890625 C-58.9430582 75.7900974 -67.81440503 68.51476869 -72.6796875 56.3515625 C-77.24349231 42.51653185 -77.35657795 27.43148759 -71.453125 13.9921875 C-65.60028351 2.46446254 -57.3055175 -4.01331515 -45.484375 -8.66015625 C-29.69463885 -13.75573592 -12.91820619 -9.91010961 0 0 Z M-44.2890625 16.2109375 C-47.38465047 20.12855959 -48.46751876 22.25556254 -49.484375 27.33984375 C-37.604375 27.33984375 -25.724375 27.33984375 -13.484375 27.33984375 C-14.57091054 19.734095 -15.95858833 17.2048147 -21.484375 12.33984375 C-29.52439946 8.31983152 -38.09411889 9.78804142 -44.2890625 16.2109375 Z " fill="#9963D3" transform="translate(1878.484375,93.66015625)"/>
<path d="M0 0 C10.36884383 10.36884383 14.10370517 21.31033742 14.25 35.75 C14.12555831 49.13028401 11.05621746 60.00905559 1.71484375 69.90625 C-10.01739747 80.99704593 -22.72864887 83.37520186 -38.31640625 83.0625 C-50.61293761 82.50197435 -61.2010671 76.70608761 -69.6171875 67.859375 C-78.62528631 56.22211817 -80.38971275 42.99108361 -79.25 28.75 C-77.1862627 15.5691961 -71.60345267 4.99544972 -60.7578125 -3.11328125 C-41.04753676 -15.48593098 -18.72933374 -12.96646182 0 0 Z M-47.89453125 17.13671875 C-53.52156145 23.83401982 -53.82432127 31.84621599 -53.5703125 40.25390625 C-52.90481279 47.51759208 -50.3908288 52.6091712 -45.25 57.75 C-40.33757512 60.84696351 -35.64798389 62.2651782 -29.828125 61.3828125 C-23.38162608 59.80049004 -19.19992369 57.09725046 -15.25 51.75 C-10.74417261 43.93546542 -10.1501591 35.29894299 -12.375 26.6875 C-14.36438892 20.5879585 -17.69397949 16.57572893 -22.875 12.875 C-31.65604745 8.71555647 -40.69063808 10.58948072 -47.89453125 17.13671875 Z " fill="#9963D3" transform="translate(1483.25,94.25)"/>
<path d="M0 0 C13.05398704 0.46136753 25.8071803 4.9946803 35.125 14.3125 C44.26531238 25.20437004 47.89092267 37.70741688 46.87109375 51.828125 C45.1893342 65.8276369 40.21627811 76.97200646 29.0703125 85.96875 C16.770347 94.46511171 3.63417434 95.51185312 -10.875 94.3125 C-23.10357073 92.01065139 -32.5467643 85.21681856 -39.875 75.3125 C-47.63364133 62.96562661 -48.85071197 48.19000422 -45.75 34.0625 C-42.2841497 22.06904593 -35.95773123 12.47237965 -24.92626953 6.37036133 C-16.79388652 2.15867313 -9.05370505 0.7301375 0 0 Z M-15.51953125 28.69921875 C-21.14656145 35.39651982 -21.44932127 43.40871599 -21.1953125 51.81640625 C-20.52981279 59.08009208 -18.0158288 64.1716712 -12.875 69.3125 C-7.9520276 72.41611303 -3.20933256 73.89783738 2.6171875 72.875 C9.61457278 71.0477896 12.88785647 68.1888274 17.3125 62.5 C21.67212079 54.83308067 22.16721934 46.72652061 20 38.25 C18.01061108 32.1504585 14.68102051 28.13822893 9.5 24.4375 C0.71895255 20.27805647 -8.31563808 22.15198072 -15.51953125 28.69921875 Z " fill="#9963D2" transform="translate(1594.875,82.6875)"/>
<path d="M0 0 C6.15584395 5.86511621 9.4185355 13.54079677 9.74525452 21.98188782 C9.74303391 23.14326767 9.74081329 24.30464752 9.73852539 25.5012207 C9.73867142 26.14568649 9.73881744 26.79015228 9.7389679 27.45414734 C9.73827506 29.56972704 9.73051231 31.68521706 9.72265625 33.80078125 C9.72078983 35.27337089 9.71936699 36.74596115 9.71836853 38.21855164 C9.71456096 42.08352388 9.70474579 45.9484582 9.69366455 49.81341553 C9.6834125 53.76167284 9.67886279 57.70993632 9.67382812 61.65820312 C9.66312187 69.39715466 9.64553941 77.13606717 9.625 84.875 C2.365 84.875 -4.895 84.875 -12.375 84.875 C-13.365 82.235 -14.355 79.595 -15.375 76.875 C-15.8596875 77.27332031 -16.344375 77.67164063 -16.84375 78.08203125 C-26.6004138 85.79354822 -35.27517784 86.91993067 -47.375 85.875 C-54.99064118 84.31281719 -61.42978269 80.96052624 -66.375 74.875 C-70.62296852 67.71482643 -71.75706023 60.32964008 -69.71484375 52.26953125 C-66.86429537 44.11276728 -62.20557823 39.07548676 -54.5625 35.125 C-42.05465731 29.91625455 -27.75759703 29.40374021 -14.375 28.875 C-15.24984166 22.19527093 -15.24984166 22.19527093 -18.25 16.3125 C-22.53034811 13.41697039 -27.29876205 13.19572042 -32.375 13.875 C-36.69241754 15.42957815 -40.3270598 17.40176582 -43.375 20.875 C-44.56527984 23.47415538 -44.56527984 23.47415538 -45.375 25.875 C-52.4928153 23.83692707 -59.44207281 21.47155258 -66.375 18.875 C-65.99361051 11.43790498 -61.39191659 5.46953858 -56.0625 0.5625 C-41.15158581 -11.19042581 -15.02085814 -11.83799973 0 0 Z M-28.8125 47.0625 C-29.64587891 47.16369141 -30.47925781 47.26488281 -31.33789062 47.36914062 C-37.14686791 48.21867485 -40.27742155 49.62230817 -44.375 53.875 C-45.78642752 56.7595108 -45.78642752 56.7595108 -45.375 59.875 C-43.35115885 63.57374418 -42.13954243 65.33113418 -38.09375 66.578125 C-32.29148213 67.40190377 -27.47947388 66.80323613 -22.375 63.875 C-17.79264329 60.31094478 -15.77679453 56.39317531 -14.375 50.875 C-14.11985464 48.03964548 -14.11985464 48.03964548 -14.375 45.875 C-19.2636805 45.68505127 -23.98744157 46.3678996 -28.8125 47.0625 Z " fill="#9863D2" transform="translate(852.375,91.125)"/>
<path d="M0 0 C7.51248091 5.93164228 11.31556914 14.1732531 12.84765625 23.53125 C13.11708046 28.38547106 13.08126067 33.23406833 13.04296875 38.09375 C13.03923216 39.4947896 13.03638824 40.89583184 13.03439331 42.296875 C13.02680765 45.95964956 13.00720362 49.62226202 12.98498535 53.28497314 C12.96441687 57.03240772 12.95536822 60.77986883 12.9453125 64.52734375 C12.92395215 71.86206114 12.88881228 79.19661208 12.84765625 86.53125 C4.92765625 86.53125 -2.99234375 86.53125 -11.15234375 86.53125 C-11.18972656 82.66535156 -11.22710938 78.79945313 -11.265625 74.81640625 C-11.31189668 71.05324799 -11.36311 67.29018696 -11.41479492 63.52709961 C-11.44795501 60.92104042 -11.4760144 58.31491096 -11.4987793 55.70874023 C-11.53248864 51.9526589 -11.58481487 48.19721645 -11.640625 44.44140625 C-11.64701492 43.28479996 -11.65340485 42.12819366 -11.6599884 40.9365387 C-11.79568937 33.3922073 -12.34117328 26.3117896 -16.96484375 20.09375 C-21.89935433 16.56909959 -26.20393333 16.20538999 -32.0390625 17.05859375 C-36.19245001 17.98753994 -38.43896303 19.53761257 -40.90234375 22.96875 C-42.92283863 27.1107645 -43.28653843 30.62496376 -43.35766602 35.21777344 C-43.37761124 36.35865417 -43.39755646 37.49953491 -43.41810608 38.67498779 C-43.43481857 39.90114807 -43.45153107 41.12730835 -43.46875 42.390625 C-43.4895311 43.65013977 -43.51031219 44.90965454 -43.53172302 46.20733643 C-43.58600677 49.54783871 -43.63626444 52.88835222 -43.68457031 56.22894287 C-43.73490079 59.64096393 -43.79052645 63.05289823 -43.84570312 66.46484375 C-43.95279492 73.15357876 -44.05408951 79.84237957 -44.15234375 86.53125 C-52.07234375 86.53125 -59.99234375 86.53125 -68.15234375 86.53125 C-68.15234375 56.50125 -68.15234375 26.47125 -68.15234375 -4.46875 C-60.89234375 -4.46875 -53.63234375 -4.46875 -46.15234375 -4.46875 C-45.49234375 -2.15875 -44.83234375 0.15125 -44.15234375 2.53125 C-43.7140625 2.13292969 -43.27578125 1.73460938 -42.82421875 1.32421875 C-30.48030543 -8.98746494 -13.0902651 -8.93273988 0 0 Z " fill="#9863D2" transform="translate(1379.15234375,89.46875)"/>
<path d="M0 0 C33.99 0 67.98 0 103 0 C103 7.26 103 14.52 103 22 C90.13 22 77.26 22 64 22 C64 56.98 64 91.96 64 128 C55.75 128 47.5 128 39 128 C39 93.02 39 58.04 39 22 C26.13 22 13.26 22 0 22 C0 14.74 0 7.48 0 0 Z " fill="#9863D3" transform="translate(921,48)"/>
<path d="M0 0 C3.57900164 3.44406621 6.09308626 6.62204089 8.0625 11.1875 C7.5675 12.6725 7.5675 12.6725 7.0625 14.1875 C4.27423206 15.26606486 1.61783963 16.1410088 -1.25 16.9375 C-2.02279297 17.17082031 -2.79558594 17.40414062 -3.59179688 17.64453125 C-10.16932154 19.53351942 -10.16932154 19.53351942 -13.9375 18.1875 C-15.6200613 16.87428142 -17.28747172 15.54136936 -18.9375 14.1875 C-24.21900657 12.42699781 -29.79698497 12.35750438 -35 14.375 C-37.35479253 16.57787043 -37.68060052 18.01907307 -37.9375 21.1875 C-34.96729485 23.67032464 -32.45027591 24.81725007 -28.71875 25.80078125 C-27.20450439 26.21360352 -27.20450439 26.21360352 -25.65966797 26.63476562 C-24.59635254 26.92029297 -23.53303711 27.20582031 -22.4375 27.5 C1.80934589 34.32765775 1.80934589 34.32765775 8.0625 44.1875 C11.60164591 50.59166878 11.61557174 58.19650397 9.77734375 65.12890625 C7.26689068 72.35846236 1.22592189 78.11204044 -5.5390625 81.484375 C-12.93983477 84.49707875 -19.1114202 85.39308056 -27.0625 85.4375 C-27.96226563 85.458125 -28.86203125 85.47875 -29.7890625 85.5 C-40.40869626 85.56103238 -50.17953488 82.78646805 -57.91796875 75.26171875 C-63.97750876 68.62745948 -63.97750876 68.62745948 -64.9375 64.1875 C-64.6408526 62.51391427 -64.31144951 60.84552613 -63.9375 59.1875 C-61.37763121 58.34524 -58.81510985 57.51351449 -56.25 56.6875 C-55.52876953 56.44902344 -54.80753906 56.21054688 -54.06445312 55.96484375 C-50.24342343 54.74351006 -47.00307944 53.86674423 -42.9375 54.1875 C-42.545625 55.115625 -42.15375 56.04375 -41.75 57 C-39.48261798 60.98746493 -37.29034704 62.32478942 -33.0625 63.875 C-26.73378877 64.80569283 -22.54323166 63.99036583 -16.9375 61.1875 C-15.63828654 60.08495874 -15.63828654 60.08495874 -15.5 57.375 C-15.60301377 54.0443041 -15.60301377 54.0443041 -18.19921875 52.19921875 C-23.93946786 48.64831336 -30.9889375 47.59784431 -37.46484375 46.0078125 C-47.22276754 43.46533779 -56.18263963 39.81979055 -61.9375 31.1875 C-64.75105626 25.29242974 -64.84770669 18.84467779 -63.28515625 12.56640625 C-60.56412559 4.89380047 -56.14028946 -0.31422186 -48.9375 -4.125 C-33.50088021 -11.0714789 -13.40389527 -11.26451134 0 0 Z " fill="#9963D3" transform="translate(1965.9375,91.8125)"/>
<path d="M0 0 C24.98490862 -2.53406524 24.98490862 -2.53406524 31.25830078 1.42529297 C34.63252648 5.07556499 36.48675845 9.39186235 38.21044922 14.0078125 C39.29260511 16.73829861 40.82104776 19.03788381 42.5 21.4375 C42.9434375 22.11683594 43.386875 22.79617187 43.84375 23.49609375 C44.94436201 25.15405577 44.94436201 25.15405577 47 26 C47.42466553 24.91972534 47.42466553 24.91972534 47.85791016 23.81762695 C51.36459621 15.16635211 55.31871115 5.70192306 63 0 C72.05597966 -2.58890808 81.79667785 -1.30614834 91 0 C89.79817679 3.24080493 88.50977545 5.94707169 86.453125 8.72265625 C85.94418701 9.41665527 85.43524902 10.1106543 84.91088867 10.82568359 C84.36279541 11.56383301 83.81470215 12.30198242 83.25 13.0625 C82.08363118 14.65942326 80.91830658 16.2571096 79.75390625 17.85546875 C79.14434082 18.68997559 78.53477539 19.52448242 77.90673828 20.38427734 C74.64166418 24.86340717 71.40228121 29.35964849 68.1875 33.875 C67.57100586 34.72457275 66.95451172 35.57414551 66.31933594 36.44946289 C65.75375977 37.24731201 65.18818359 38.04516113 64.60546875 38.8671875 C64.10168701 39.56956543 63.59790527 40.27194336 63.07885742 40.99560547 C61.68403153 43.2076506 61.68403153 43.2076506 62 47 C63.46548855 49.44048706 64.96464166 51.69832718 66.625 54 C67.108479 54.68626465 67.59195801 55.3725293 68.09008789 56.07958984 C69.14794306 57.58012443 70.20973914 59.07788639 71.27490234 60.57324219 C73.73065001 64.02783202 76.15729757 67.50254465 78.58544922 70.9765625 C79.79740926 72.70966856 81.01120507 74.44149268 82.22705078 76.171875 C83.82318754 78.44437185 85.41316261 80.72100328 87 83 C87.64219482 83.91410645 87.64219482 83.91410645 88.29736328 84.84667969 C91 88.76722247 91 88.76722247 91 91 C81.81140676 92.57372091 71.98789593 94.0432348 63 91 C56.04521902 85.04231598 52.02294829 76.49654195 48.25146484 68.29492188 C47.83848145 67.53759766 47.42549805 66.78027344 47 66 C46.34 66 45.68 66 45 66 C43.35104162 68.26091185 41.81785013 70.52076822 40.3125 72.875 C39.03188307 74.85138519 37.7473004 76.8211404 36.42651367 78.77099609 C34.92632793 81.03524053 34.92632793 81.03524053 33.61450195 83.71728516 C31.96195759 86.66181875 30.55141803 88.77650032 28 91 C23.1313648 92.21407691 18.54108032 91.95171148 13.5625 91.625 C12.25861328 91.57988281 10.95472656 91.53476563 9.61132812 91.48828125 C6.40281326 91.37075323 3.20379847 91.20673771 0 91 C3.13865443 85.26118576 6.72173893 79.96002294 10.5 74.625 C11.10787354 73.75738037 11.71574707 72.88976074 12.34204102 71.99584961 C15.38727716 67.65708982 18.46623773 63.34963427 21.62109375 59.08984375 C22.18054688 58.32526855 22.74 57.56069336 23.31640625 56.77294922 C24.37536026 55.32900801 25.44653253 53.89392695 26.53125 52.46923828 C29.21552804 48.84428374 29.21552804 48.84428374 30.18359375 44.546875 C28.32957347 40.557366 25.76638661 37.19063151 23.125 33.6875 C21.93860166 32.08053528 20.75373471 30.47243895 19.5703125 28.86328125 C18.6736084 27.64825928 18.6736084 27.64825928 17.75878906 26.40869141 C15.10622236 22.77595639 12.54395321 19.08430237 10 15.375 C9.5683252 14.74940186 9.13665039 14.12380371 8.69189453 13.47924805 C5.66663921 9.06383551 2.80633417 4.55730756 0 0 Z " fill="#9963D3" transform="translate(684,85)"/>
<path d="M0 0 C4.67130916 4.33926133 8.70490015 8.97536291 11 15 C11 15.99 11 16.98 11 18 C0.11 20.97 0.11 20.97 -11 24 C-12.32 22.02 -13.64 20.04 -15 18 C-20.44781838 13.6393559 -26.17196137 12.43099678 -33 13 C-35.19807151 13.91023214 -37.23096704 14.9538674 -39.30078125 16.125 C-41 17 -41 17 -43 17 C-43.268125 17.53625 -43.53625 18.0725 -43.8125 18.625 C-44.70425428 20.40850856 -45.62608084 22.17703198 -46.5625 23.9375 C-49.98836447 31.23608083 -50.1168913 40.04844401 -47.875 47.75 C-45.94473473 52.84553439 -42.80405017 57.37220149 -38.03515625 60.140625 C-31.81297086 62.76803534 -26.50052673 62.11000741 -20.26953125 60.0234375 C-15.88891556 58.04801356 -13.59928757 54.89893135 -11 51 C-8.47717364 51.59663481 -5.9569878 52.20205141 -3.4375 52.8125 C-2.73302734 52.97814453 -2.02855469 53.14378906 -1.30273438 53.31445312 C3.38412291 54.45916942 7.61326048 55.98821013 12 58 C6.62708003 70.03534073 -1.10116333 76.49630356 -13 82 C-24.32699392 85.95018251 -39.38608924 85.76975643 -50.4609375 81.32421875 C-61.75956677 75.43154903 -69.93052466 66.05008067 -74 54 C-77.63909111 39.78762924 -76.76510096 24.18403622 -69.4609375 11.28125 C-62.69161658 1.01908312 -53.90096516 -5.77682194 -42 -9 C-26.8665999 -11.44087098 -12.52062643 -9.40405951 0 0 Z " fill="#9963D3" transform="translate(1187,93)"/>
<path d="M0 0 C8.58 0 17.16 0 26 0 C27.88459752 5.50922069 29.76874732 11.01859086 31.65185547 16.52832031 C32.28963049 18.39396426 32.92764272 20.25952713 33.56591797 22.125 C34.4951258 24.84092086 35.42353176 27.55711422 36.3515625 30.2734375 C36.65700989 31.16681824 36.96245728 32.06019897 37.27716064 32.98065186 C38.7933432 37.42489214 40.29405714 41.87345669 41.76464844 46.33300781 C42.04069916 47.1692569 42.31674988 48.00550598 42.60116577 48.86709595 C43.1215317 50.44787301 43.63925303 52.0295238 44.15396118 53.6121521 C45.08557875 57.07857106 45.08557875 57.07857106 47 60 C48.88484641 54.49086543 50.76874746 48.98140872 52.65185547 43.47167969 C53.28963049 41.60603574 53.92764272 39.74047287 54.56591797 37.875 C55.4951258 35.15907914 56.42353176 32.44288578 57.3515625 29.7265625 C57.65700989 28.83318176 57.96245728 27.93980103 58.27716064 27.01934814 C59.7933432 22.57510786 61.29405714 18.12654331 62.76464844 13.66699219 C63.04069916 12.8307431 63.31674988 11.99449402 63.60116577 11.13290405 C64.1215317 9.55212699 64.63925303 7.9704762 65.15396118 6.3878479 C66.89055916 1.10944084 66.89055916 1.10944084 68 0 C69.92667507 -0.08748207 71.85651861 -0.10697334 73.78515625 -0.09765625 C74.95498047 -0.09443359 76.12480469 -0.09121094 77.33007812 -0.08789062 C78.56177734 -0.07951172 79.79347656 -0.07113281 81.0625 -0.0625 C82.91584961 -0.05573242 82.91584961 -0.05573242 84.80664062 -0.04882812 C87.87114117 -0.03699608 90.93554721 -0.02051173 94 0 C88.54274903 15.83655082 82.77331755 31.54956618 76.9375 47.25 C76.05647908 49.62494008 75.17561898 51.99993982 74.29492188 54.375 C72.23139851 59.93818506 70.16323706 65.49962922 68.09295654 71.06030273 C67.08497252 73.77145158 66.08109632 76.48407902 65.07861328 79.19726562 C64.53296297 80.66800043 63.98723468 82.1387063 63.44140625 83.609375 C62.98580322 84.84139648 62.5302002 86.07341797 62.06079102 87.34277344 C61 90 61 90 60 91 C58.00035018 91.08758003 55.9976389 91.10696576 53.99609375 91.09765625 C52.17368164 91.09282227 52.17368164 91.09282227 50.31445312 91.08789062 C49.03505859 91.07951172 47.75566406 91.07113281 46.4375 91.0625 C45.15423828 91.05798828 43.87097656 91.05347656 42.54882812 91.04882812 C39.36583978 91.03699545 36.18294238 91.02051068 33 91 C25.95378223 72.69407373 19.1184616 54.30934103 12.32040405 35.91012573 C11.35690008 33.30251873 10.39166612 30.69556237 9.42495728 28.08914185 C8.04708919 24.37356426 6.67556903 20.65566135 5.3046875 16.9375 C4.88534439 15.80835678 4.46600128 14.67921356 4.03395081 13.51585388 C3.64875778 12.46777054 3.26356476 11.41968719 2.86669922 10.33984375 C2.52903534 9.42581787 2.19137146 8.51179199 1.84347534 7.57006836 C1 5 1 5 0 0 Z " fill="#9963D3" transform="translate(539,85)"/>
<path d="M0 0 C7.92 0 15.84 0 24 0 C24 43.23 24 86.46 24 131 C16.08 131 8.16 131 0 131 C0 87.77 0 44.54 0 0 Z " fill="#9863D2" transform="translate(1511,45)"/>
<path d="M0 0 C8.25 0 16.5 0 25 0 C25 30.03 25 60.06 25 91 C16.75 91 8.5 91 0 91 C0 60.97 0 30.94 0 0 Z " fill="#9963D3" transform="translate(1762,85)"/>
<path d="M0 0 C7.92 0 15.84 0 24 0 C24 30.03 24 60.06 24 91 C16.08 91 8.16 91 0 91 C0 60.97 0 30.94 0 0 Z " fill="#9863D2" transform="translate(646,85)"/>
<path d="M0 0 C4.33668337 3.80781955 6.36940649 6.69151105 6.8125 12.5625 C6.45148229 17.8875112 4.97718242 20.94141877 1.0625 24.5625 C-3.55544469 27.67961267 -8.02940863 27.89681492 -13.4375 27.25 C-17.15390402 25.94000318 -19.81109399 24.02256741 -22.3125 20.9375 C-24.16817315 16.50450303 -24.78863546 12.84607029 -23.75 8.125 C-21.93877432 4.15755328 -20.06797682 1.25705921 -16.3125 -1.0625 C-10.51081918 -2.44985846 -5.38297618 -2.74042424 0 0 Z " fill="#9963D3" transform="translate(1783.4375,46.75)"/>
<path d="M0 0 C3.92782341 2.03880664 6.40658091 4.12338729 7.90625 8.26953125 C8.61009966 12.90201114 9.01020938 17.25811012 6.69921875 21.46875 C3.65912838 25.13994774 0.61920553 27.88971748 -4.2421875 28.5703125 C-9.27887597 28.59682139 -12.79151916 28.17103577 -17.09375 25.26953125 C-21.18413297 20.8474956 -22.47145862 17.40577544 -22.37109375 11.328125 C-21.74116334 6.65244435 -18.82661663 3.93260106 -15.46875 0.89453125 C-10.37762526 -1.55675103 -5.38780668 -1.87970121 0 0 Z " fill="#9963D2" transform="translate(665.09375,45.73046875)"/>
</svg>
